
<svg width="480" height="480" viewBox="0 0 480 480" fill="none" xmlns="http://www.w3.org/2000/svg">
<path d="M302.057 188.571H422.4C404.742 125.314 354.686 75.2569 291.429 57.5996V177.942H188.571V57.5996C125.314 75.2569 75.2578 125.314 57.5996 188.571H177.943V291.429H57.5998C75.258 354.686 125.315 404.742 188.571 422.4V302.057H291.429V422.4C354.686 404.742 404.742 354.686 422.401 291.429H302.057V188.571H302.057Z" fill="#1D1D1F"/>
<path d="M214.288 0H265.712V152.224H214.288V0Z" fill="#1D1D1F"/>
<path d="M0 214.288H152.224V265.712H0V214.288Z" fill="#1D1D1F"/>
<path d="M214.288 327.776H265.712V480H214.288V327.776Z" fill="#1D1D1F"/>
<path d="M327.776 214.288H480V265.712H327.776V214.288Z" fill="#1D1D1F"/>
</svg>
